<svg xmlns="http://www.w3.org/2000/svg" xmlns:xlink="http://www.w3.org/1999/xlink" viewBox="0 0 214.65 214.63"><defs><style>.cls-1{fill:none;}.cls-2{clip-path:url(#clip-path);}.cls-3{fill:#00448a;}</style><clipPath id="clip-path" transform="translate(-34.39 -34.44)"><rect class="cls-1" width="283.46" height="283.46"/></clipPath></defs><g id="Layer_2" data-name="Layer 2"><g id="Ebene_1" data-name="Ebene 1"><g class="cls-2"><path class="cls-3" d="M78.43,123.18l36.57,0-6,26h37.65l27,40h-54.6L107,171.34H83.84L82,148.26H72.67ZM91.15,56.05,109.4,82.17c12.74-10,23.14-16.56,36-16.56,10.67,0,23.15,4.79,29.37,15.48,5.44,9.31,5,23.58.13,32.49-10,18.23-18.94,35.3-19.26,35.3l17.44,25.67c-.2-.06,28.9-43.08,33.74-65,4.42-20,1.49-35.68-8.82-50.6C186.07,41.68,165.41,35,148.81,34.47c-23.72-.79-48.69,13.6-57.66,21.58M73.24,116.76s48.91-36.1,61.17-42.65c4.39-2.36,22.06-4.68,32.09,7.81,8.91,11.07,3.28,27.17-.32,33.16s-15.66,28-15.66,28H118.63l6.27-26.33Z" transform="translate(-34.39 -34.44)"/><path class="cls-3" d="M50.6,233.6H43.07a2.54,2.54,0,0,1-2.54-2.53,2.34,2.34,0,0,1,2.62-2.22H55v-5.31H42a7.56,7.56,0,0,0-.17,15.12h7.79a2.63,2.63,0,0,1,2.62,2.62A2.67,2.67,0,0,1,49.59,244L34.4,244v5.07H50.57a7.81,7.81,0,0,0,7.74-7.76,7.72,7.72,0,0,0-7.71-7.69" transform="translate(-34.39 -34.44)"/><polygon class="cls-3" points="45.91 189.21 24 189.21 24 194.51 31.08 194.51 31.08 214.63 36.66 214.63 36.66 194.51 45.91 194.51 45.91 189.21"/><path class="cls-3" d="M87.65,224.85a12.66,12.66,0,0,0-1.22,1.36L74,249.05h6.32l2.92-5.41H95.76v5.41h5.51V223.58H91.05a4.6,4.6,0,0,0-3.4,1.27m3.81,4.32a2.67,2.67,0,0,1,1.78-.59h2.52v10H86l4.29-8a5,5,0,0,1,1.22-1.35" transform="translate(-34.39 -34.44)"/><polygon class="cls-3" points="72.11 214.62 91.95 214.62 91.95 209.63 77.88 209.63 77.88 204.29 90.25 204.29 90.25 199.3 77.88 199.3 77.84 194.41 91.95 194.4 91.95 189.14 72.11 189.15 72.11 214.62"/><path class="cls-3" d="M146.17,223.59h-15.1v25.46h15.26c6.19,0,10.09-4.48,10.09-13,0-6.46-3.94-12.43-10.25-12.43m-1.45,20.47h-7.89v-15.4h7.89c3.73,0,5.93,2.71,5.93,7.53,0,5.42-2.12,7.87-5.93,7.87" transform="translate(-34.39 -34.44)"/><polygon class="cls-3" points="122.82 194.46 131.12 194.46 131.12 214.62 136.7 214.62 136.7 194.46 144.92 194.46 144.92 189.15 122.82 189.15 122.82 194.46"/><polygon class="cls-3" points="153.31 189.15 147.54 189.15 147.54 214.62 164.25 214.62 164.25 209.63 153.31 209.63 153.31 189.15"/><path class="cls-3" d="M244.64,239.49a4.36,4.36,0,0,0-1.19-1.69,6.51,6.51,0,0,0-2.55-1,6.34,6.34,0,0,0,6.11-6.43,6.64,6.64,0,0,0-6.79-6.77H226.07v25.47h5.76V238.73h3.48a4,4,0,0,1,2.63.85,5.09,5.09,0,0,1,1.35,1.86l3.48,7.61H249Zm-6.19-5.75h-6.62v-5.08h6.62a2.54,2.54,0,1,1,0,5.08" transform="translate(-34.39 -34.44)"/><polygon class="cls-3" points="187.88 189.14 168.04 189.14 168.03 214.62 187.91 214.62 187.91 209.62 173.8 209.62 173.8 204.28 186.19 204.28 186.19 199.29 173.8 199.29 173.79 194.39 187.93 194.39 187.88 189.14"/></g></g></g></svg>