<svg xmlns="http://www.w3.org/2000/svg" viewBox="0 0 139.26 15.48"><defs><style>.cls-1,.cls-2{fill:#FFFFFF;}.cls-1{fill-rule:evenodd;}</style></defs><g id="Layer_2" data-name="Layer 2"><g id="Ebene_1" data-name="Ebene 1"><path class="cls-1" d="M51.8,9.92V4.64H50.47a1.43,1.43,0,0,0-.94.32,2.65,2.65,0,0,0-.64.71L46.62,9.92Zm-6.64,2.69-1.55,2.86H40.27l6.6-12.08a6,6,0,0,1,.65-.72A2.41,2.41,0,0,1,49.32,2h5.4V15.47H51.8V12.61Z"/><polygon class="cls-2" points="32.04 2.04 43.63 2.04 43.63 4.84 38.73 4.84 38.73 15.48 35.79 15.48 35.79 4.84 32.04 4.84 32.04 2.04 32.04 2.04"/><path class="cls-1" d="M73.53,12.83H77.7c2,0,3.14-1.29,3.14-4.16,0-2.55-1.16-4-3.14-4H73.53v8.14ZM83.89,8.58c0,4.52-2.06,6.89-5.33,6.89H70.48V2h8c3.34,0,5.4,3.16,5.42,6.58Z"/><path class="cls-1" d="M123.79,7.37h3.5a1.34,1.34,0,0,0,0-2.68h-3.5V7.37ZM125.63,10h-1.84v5.46h-3.05V2h7.49a3.51,3.51,0,0,1,3.59,3.58A3.35,3.35,0,0,1,128.59,9a3.45,3.45,0,0,1,1.34.54,2.23,2.23,0,0,1,.63.9l2.33,5.05h-3.32l-1.84-4a2.66,2.66,0,0,0-.71-1,2.13,2.13,0,0,0-1.39-.45Z"/><path class="cls-2" d="M30.25,2h-6.9a4,4,0,0,0-.09,8h4.12a1.39,1.39,0,0,1,1.39,1.39,1.41,1.41,0,0,1-1.39,1.43h-8v2.68H27.9a4.13,4.13,0,0,0,4.1-4.1A4.09,4.09,0,0,0,27.92,7.3h-4A1.34,1.34,0,0,1,22.59,6,1.23,1.23,0,0,1,24,4.79h6.27V2Z"/><path class="cls-1" d="M136.18,2.21h.46c.35,0,.94.06.94-.37s-.37-.34-.67-.34h-.73v.71Zm.92.39.83,1.26h-.46l-.83-1.26h-.46V3.86h-.39V1.12H137c.5,0,1,.13,1,.72s-.38.74-.87.76Z"/><path class="cls-1" d="M136.73,4.63a2.14,2.14,0,0,0,2.14-2.12,2.14,2.14,0,0,0-4.27,0,2.14,2.14,0,0,0,2.13,2.12Zm0,.38a2.51,2.51,0,1,1,2.53-2.5A2.49,2.49,0,0,1,136.73,5Z"/><path class="cls-2" d="M.06,8.31s4.83-3.57,6-4.22a2.88,2.88,0,0,1,3.16.78,3.07,3.07,0,0,1,0,3.27c-.35.59-1.54,2.77-1.54,2.77H4.54l.62-2.6Z"/><path class="cls-2" d="M7.52.18A6.11,6.11,0,0,1,12.37,2.6a5.89,5.89,0,0,1,.87,5C12.77,9.76,9.89,14,9.91,14L8.19,11.48S9.11,9.79,10.09,8a3.56,3.56,0,0,0,0-3.21,3.37,3.37,0,0,0-2.9-1.52A5.77,5.77,0,0,0,3.63,4.89L1.82,2.31A9.43,9.43,0,0,1,7.52.18Z"/><polygon class="cls-2" points="0.57 8.94 4.18 8.94 3.59 11.51 7.3 11.51 9.97 15.46 4.58 15.46 3.38 13.7 1.1 13.7 0.93 11.42 0 11.41 0.57 8.94 0.57 8.94"/><polygon class="cls-2" points="57.49 2 67.98 2 67.98 4.78 60.52 4.78 60.54 7.37 67.09 7.37 67.09 10.01 60.54 10.01 60.54 12.83 67.98 12.84 67.98 15.47 57.49 15.47 57.49 2 57.49 2"/><polygon class="cls-2" points="84.31 2 96 2 96 4.81 91.66 4.81 91.66 15.47 88.7 15.47 88.7 4.81 84.31 4.81 84.31 2 84.31 2"/><polygon class="cls-2" points="106.23 12.83 106.23 15.47 97.39 15.47 97.39 2 100.44 2 100.44 12.83 106.23 12.83 106.23 12.83"/><polygon class="cls-2" points="108.23 2 118.73 2 118.75 4.77 111.28 4.77 111.28 7.37 117.84 7.37 117.84 10.01 111.28 10.01 111.28 12.83 118.75 12.83 118.75 15.47 108.23 15.47 108.23 2 108.23 2"/></g></g></svg>